<svg width="2800" height="750" viewBox="0 0 2800 750" fill="none" xmlns="http://www.w3.org/2000/svg">
<mask id="path-1-inside-1_33_694" fill="white">
<path d="M2800 0H2050V750H2800V0Z"/>
</mask>
<path d="M2800 0H2050V750H2800V0Z" fill="white"/>
<path d="M2800 0V-20H2820V0H2800ZM2800 750H2820V770H2800V750ZM2800 0V20H2050V0V-20H2800V0ZM2050 750V730H2800V750V770H2050V750ZM2800 750H2780V0H2800H2820V750H2800Z" fill="black" mask="url(#path-1-inside-1_33_694)"/>
<path d="M2282.4 121.63L2304.03 100H2390.55L2390.55 100.001V121.63L2412.18 100H2715L2669.12 145.884H2669.12L2715 100V294.669L2693.37 316.299H2715V619.116L2669.12 665H2582.6V626.066L2543.66 665H2150V145.884L2195.88 100H2282.4V121.63ZM2390.55 247.083L2405.23 232.403H2390.55V247.083Z" fill="black"/>
<mask id="path-4-inside-2_33_694" fill="white">
<path d="M2282.4 532.597H2503.03L2589.55 619.116H2195.88V100H2282.4V532.597ZM2715 619.116H2628.48V402.818H2606.85V601.812L2520.33 515.293V316.299H2715V619.116ZM2390.55 424.447H2412.18V225.453L2498.7 311.973V510.967H2304.03V100H2390.55V424.447ZM2715 294.669H2516.01L2429.49 208.149H2628.48V186.52H2412.18V100H2715V294.669Z"/>
</mask>
<path d="M2282.4 532.597H2503.03L2589.55 619.116H2195.88V100H2282.4V532.597ZM2715 619.116H2628.48V402.818H2606.85V601.812L2520.33 515.293V316.299H2715V619.116ZM2390.55 424.447H2412.18V225.453L2498.7 311.973V510.967H2304.03V100H2390.55V424.447ZM2715 294.669H2516.01L2429.49 208.149H2628.48V186.52H2412.18V100H2715V294.669Z" fill="white"/>
<path d="M2282.4 532.597H2273.75V541.249H2282.4V532.597ZM2503.03 532.597L2509.15 526.479L2506.61 523.945H2503.03V532.597ZM2589.55 619.116V627.768H2610.43L2595.66 612.998L2589.55 619.116ZM2195.88 619.116H2187.23V627.768H2195.88V619.116ZM2195.88 100V91.3481H2187.23V100H2195.88ZM2282.4 100H2291.06V91.3481H2282.4V100ZM2715 619.116V627.768H2723.65V619.116H2715ZM2628.48 619.116H2619.83V627.768H2628.48V619.116ZM2628.48 402.818H2637.13V394.166H2628.48V402.818ZM2606.85 402.818V394.166H2598.2V402.818H2606.85ZM2606.85 601.812L2600.73 607.93L2615.5 622.7V601.812H2606.85ZM2520.33 515.293H2511.68V518.877L2514.21 521.411L2520.33 515.293ZM2520.33 316.299V307.647H2511.68V316.299H2520.33ZM2715 316.299H2723.65V307.647H2715V316.299ZM2390.55 424.447H2381.9V433.099H2390.55V424.447ZM2412.18 424.447V433.099H2420.83V424.447H2412.18ZM2412.18 225.453L2418.3 219.335L2403.53 204.566V225.453H2412.18ZM2498.7 311.973H2507.35V308.389L2504.82 305.855L2498.7 311.973ZM2498.7 510.967V519.619H2507.35V510.967H2498.7ZM2304.03 510.967H2295.38V519.619H2304.03V510.967ZM2304.03 100V91.3481H2295.38V100H2304.03ZM2390.55 100H2399.2V91.3481H2390.55V100ZM2715 294.669V303.321H2723.65V294.669H2715ZM2516.01 294.669L2509.89 300.787L2512.42 303.321H2516.01V294.669ZM2429.49 208.149V199.497H2408.6L2423.37 214.267L2429.49 208.149ZM2628.48 208.149V216.801H2637.13V208.149H2628.48ZM2628.48 186.52H2637.13V177.868H2628.48V186.52ZM2412.18 186.52H2403.53V195.171H2412.18V186.52ZM2412.18 100V91.3481H2403.53V100H2412.18ZM2715 100H2723.65V91.3481H2715V100ZM2282.4 532.597V541.249H2503.03V532.597V523.945H2282.4V532.597ZM2503.03 532.597L2496.91 538.715L2583.43 625.234L2589.55 619.116L2595.66 612.998L2509.15 526.479L2503.03 532.597ZM2589.55 619.116V610.464H2195.88V619.116V627.768H2589.55V619.116ZM2195.88 619.116H2204.54V100H2195.88H2187.23V619.116H2195.88ZM2195.88 100V108.652H2282.4V100V91.3481H2195.88V100ZM2282.4 100H2273.75V532.597H2282.4H2291.06V100H2282.4ZM2715 619.116V610.464H2628.48V619.116V627.768H2715V619.116ZM2628.48 619.116H2637.13V402.818H2628.48H2619.83V619.116H2628.48ZM2628.48 402.818V394.166H2606.85V402.818V411.47H2628.48V402.818ZM2606.85 402.818H2598.2V601.812H2606.85H2615.5V402.818H2606.85ZM2606.85 601.812L2612.97 595.695L2526.45 509.175L2520.33 515.293L2514.21 521.411L2600.73 607.93L2606.85 601.812ZM2520.33 515.293H2528.98V316.299H2520.33H2511.68V515.293H2520.33ZM2520.33 316.299V324.951H2715V316.299V307.647H2520.33V316.299ZM2715 316.299H2706.35V619.116H2715H2723.65V316.299H2715ZM2390.55 424.447V433.099H2412.18V424.447V415.795H2390.55V424.447ZM2412.18 424.447H2420.83V225.453H2412.18H2403.53V424.447H2412.18ZM2412.18 225.453L2406.06 231.571L2492.58 318.09L2498.7 311.973L2504.82 305.855L2418.3 219.335L2412.18 225.453ZM2498.7 311.973H2490.05V510.967H2498.7H2507.35V311.973H2498.7ZM2498.7 510.967V502.315H2304.03V510.967V519.619H2498.7V510.967ZM2304.03 510.967H2312.69V100H2304.03H2295.38V510.967H2304.03ZM2304.03 100V108.652H2390.55V100V91.3481H2304.03V100ZM2390.55 100H2381.9V424.447H2390.55H2399.2V100H2390.55ZM2715 294.669V286.017H2516.01V294.669V303.321H2715V294.669ZM2516.01 294.669L2522.12 288.551L2435.6 202.032L2429.49 208.149L2423.37 214.267L2509.89 300.787L2516.01 294.669ZM2429.49 208.149V216.801H2628.48V208.149V199.497H2429.49V208.149ZM2628.48 208.149H2637.13V186.52H2628.48H2619.83V208.149H2628.48ZM2628.48 186.52V177.868H2412.18V186.52V195.171H2628.48V186.52ZM2412.18 186.52H2420.83V100H2412.18H2403.53V186.52H2412.18ZM2412.18 100V108.652H2715V100V91.3481H2412.18V100ZM2715 100H2706.35V294.669H2715H2723.65V100H2715Z" fill="black" mask="url(#path-4-inside-2_33_694)"/>
<rect width="2050" height="750" fill="black"/>
<path d="M521.3 609H154.5V140H286.1V490.7H521.3V609ZM807.08 609H625.78L465.48 140H613.88L713.28 462H722.38L819.68 140H968.08L807.08 609ZM1109.15 609H977.547V140H1118.25L1249.15 350.7L1279.95 408.1H1289.05L1282.05 350.7V140H1412.95V609H1272.95L1149.05 413.7L1111.25 347.2H1102.15L1109.15 413.7V609ZM1680.71 616C1529.51 616 1447.61 520.8 1447.61 374.5C1447.61 228.2 1529.51 133 1680.71 133C1829.11 133 1901.21 210 1901.21 319.2V335.3H1760.51V333.2C1760.51 279.3 1743.01 261.1 1677.91 261.1C1610.71 261.1 1589.01 277.2 1589.01 374.5C1589.01 471.8 1610.71 487.9 1677.91 487.9C1743.01 487.9 1760.51 469.7 1760.51 415.8V413.7H1901.21V429.8C1901.21 539 1829.11 616 1680.71 616Z" fill="white"/>
</svg>
