<svg width="1950" height="1950" viewBox="0 0 1950 1950" fill="none" xmlns="http://www.w3.org/2000/svg">
<path d="M456.967 74.6504L531.618 0H830.225V74.6523L904.877 0H1950L1950 0.000976562V671.865H1950L1875.35 746.517H1950V1791.64L1950 1791.64H1950L1791.64 1950H1493.03V1815.63L1358.66 1950H0V158.36L158.36 0H456.967V74.6504ZM1045.12 889.946V889.947L1104.85 830.225H1104.84L1045.12 889.946ZM830.225 507.63L880.889 456.967H830.225V507.63Z" fill="black"/>
<mask id="path-2-inside-1_33_645" fill="white">
<path d="M456.966 1493.03H1218.41L1517.02 1791.64H158.359V0H456.966V1493.03ZM1950 1791.64H1651.39V1045.12H1576.74V1731.92L1278.13 1433.31V746.517H1950V1791.64ZM830.225 1119.77H904.877V432.979L1203.48 731.587V1418.38H531.618V0H830.225V1119.77ZM1950 671.865H1263.2L964.598 373.258H1651.39V298.606H904.877V0H1950V671.865Z"/>
</mask>
<path d="M456.966 1493.03H1218.41L1517.02 1791.64H158.359V0H456.966V1493.03ZM1950 1791.64H1651.39V1045.12H1576.74V1731.92L1278.13 1433.31V746.517H1950V1791.64ZM830.225 1119.77H904.877V432.979L1203.48 731.587V1418.38H531.618V0H830.225V1119.77ZM1950 671.865H1263.2L964.598 373.258H1651.39V298.606H904.877V0H1950V671.865Z" fill="white"/>
<path d="M456.966 1493.03H427.105V1522.89H456.966V1493.03ZM1218.41 1493.03L1239.53 1471.92L1230.78 1463.17H1218.41V1493.03ZM1517.02 1791.64V1821.5H1589.11L1538.13 1770.53L1517.02 1791.64ZM158.359 1791.64H128.499V1821.5H158.359V1791.64ZM158.359 0V-29.8607H128.499V0H158.359ZM456.966 0H486.826V-29.8607H456.966V0ZM1950 1791.64V1821.5H1979.86V1791.64H1950ZM1651.39 1791.64H1621.53V1821.5H1651.39V1791.64ZM1651.39 1045.12H1681.25V1015.26H1651.39V1045.12ZM1576.74 1045.12V1015.26H1546.88V1045.12H1576.74ZM1576.74 1731.92L1555.63 1753.03L1606.6 1804.01V1731.92H1576.74ZM1278.13 1433.31H1248.27V1445.68L1257.02 1454.43L1278.13 1433.31ZM1278.13 746.517V716.656H1248.27V746.517H1278.13ZM1950 746.517H1979.86V716.656H1950V746.517ZM830.225 1119.77H800.364V1149.64H830.225V1119.77ZM904.877 1119.77V1149.64H934.738V1119.77H904.877ZM904.877 432.979L925.992 411.865L875.016 360.889V432.979H904.877ZM1203.48 731.587H1233.34V719.218L1224.6 710.472L1203.48 731.587ZM1203.48 1418.38V1448.24H1233.34V1418.38H1203.48ZM531.618 1418.38H501.758V1448.24H531.618V1418.38ZM531.618 0V-29.8607H501.758V0H531.618ZM830.225 0H860.085V-29.8607H830.225V0ZM1950 671.865V701.726H1979.86V671.865H1950ZM1263.2 671.865L1242.09 692.98L1250.84 701.726H1263.2V671.865ZM964.598 373.258V343.397H892.508L943.483 394.372L964.598 373.258ZM1651.39 373.258V403.118H1681.25V373.258H1651.39ZM1651.39 298.606H1681.25V268.746H1651.39V298.606ZM904.877 298.606H875.016V328.467H904.877V298.606ZM904.877 0V-29.8607H875.016V0H904.877ZM1950 0H1979.86V-29.8607H1950V0ZM456.966 1493.03V1522.89H1218.41V1493.03V1463.17H456.966V1493.03ZM1218.41 1493.03L1197.3 1514.15L1495.9 1812.75L1517.02 1791.64L1538.13 1770.53L1239.53 1471.92L1218.41 1493.03ZM1517.02 1791.64V1761.78H158.359V1791.64V1821.5H1517.02V1791.64ZM158.359 1791.64H188.22V0H158.359H128.499V1791.64H158.359ZM158.359 0V29.8607H456.966V0V-29.8607H158.359V0ZM456.966 0H427.105V1493.03H456.966H486.826V0H456.966ZM1950 1791.64V1761.78H1651.39V1791.64V1821.5H1950V1791.64ZM1651.39 1791.64H1681.25V1045.12H1651.39H1621.53V1791.64H1651.39ZM1651.39 1045.12V1015.26H1576.74V1045.12V1074.98H1651.39V1045.12ZM1576.74 1045.12H1546.88V1731.92H1576.74H1606.6V1045.12H1576.74ZM1576.74 1731.92L1597.86 1710.8L1299.25 1412.2L1278.13 1433.31L1257.02 1454.43L1555.63 1753.03L1576.74 1731.92ZM1278.13 1433.31H1308V746.517H1278.13H1248.27V1433.31H1278.13ZM1278.13 746.517V776.377H1950V746.517V716.656H1278.13V746.517ZM1950 746.517H1920.14V1791.64H1950H1979.86V746.517H1950ZM830.225 1119.77V1149.64H904.877V1119.77V1089.91H830.225V1119.77ZM904.877 1119.77H934.738V432.979H904.877H875.016V1119.77H904.877ZM904.877 432.979L883.762 454.094L1182.37 752.702L1203.48 731.587L1224.6 710.472L925.992 411.865L904.877 432.979ZM1203.48 731.587H1173.62V1418.38H1203.48H1233.34V731.587H1203.48ZM1203.48 1418.38V1388.52H531.618V1418.38V1448.24H1203.48V1418.38ZM531.618 1418.38H561.479V0H531.618H501.758V1418.38H531.618ZM531.618 0V29.8607H830.225V0V-29.8607H531.618V0ZM830.225 0H800.364V1119.77H830.225H860.085V0H830.225ZM1950 671.865V642.005H1263.2V671.865V701.726H1950V671.865ZM1263.2 671.865L1284.32 650.751L985.712 352.143L964.598 373.258L943.483 394.372L1242.09 692.98L1263.2 671.865ZM964.598 373.258V403.118H1651.39V373.258V343.397H964.598V373.258ZM1651.39 373.258H1681.25V298.606H1651.39H1621.53V373.258H1651.39ZM1651.39 298.606V268.746H904.877V298.606V328.467H1651.39V298.606ZM904.877 298.606H934.738V0H904.877H875.016V298.606H904.877ZM904.877 0V29.8607H1950V0V-29.8607H904.877V0ZM1950 0H1920.14V671.865H1950H1979.86V0H1950Z" fill="black" mask="url(#path-2-inside-1_33_645)"/>
</svg>
